<svg xmlns="http://www.w3.org/2000/svg" version="1.1" viewBox="128.36236572265625 121.36238098144531 243.2752685546875 243.27525329589844">
<path d="M0 0 C1.39534894 0.00334608 1.39534894 0.00334608 2.81888676 0.00675976 C3.79908818 0.00519977 4.77928961 0.00363978 5.78919411 0.00203252 C9.1004575 -0.00198205 12.41167569 0.00121392 15.72293949 0.00434887 C18.0859667 0.00299504 20.4489937 0.0012152 22.8120203 -0.00096118 C28.58010309 -0.0050615 34.34817132 -0.00444225 40.11625457 -0.00154854 C44.80205533 0.00070535 49.48785245 0.00101807 54.1736536 -0.00007236 C55.17214733 -0.00030221 55.17214733 -0.00030221 56.19081265 -0.0005367 C57.54288538 -0.00085641 58.89495812 -0.00118062 60.24703085 -0.00150929 C72.94005256 -0.00436419 85.63306707 -0.00107691 98.32608759 0.00429107 C109.22888298 0.00875912 120.13166773 0.00798319 131.03446293 0.00337231 C143.68054568 -0.00197328 156.32662211 -0.0040895 168.97270584 -0.00101542 C170.31994152 -0.00069686 171.6671772 -0.00038249 173.01441288 -0.00007236 C174.00883903 0.00015905 174.00883903 0.00015905 175.02335459 0.00039514 C179.70618692 0.00126034 184.38901525 -0.00020265 189.07184696 -0.00255191 C195.36886294 -0.00542934 201.66585872 -0.00345731 207.96287251 0.00234234 C210.28131037 0.00367064 212.59974993 0.00327467 214.91818714 0.00107968 C218.06854138 -0.00162913 221.21882975 0.00174598 224.36917973 0.00675976 C225.29941236 0.00452904 226.22964499 0.00229832 227.18806648 0 C233.47988343 0.0195936 233.47988343 0.0195936 234.59403324 1.13374341 C234.69429933 4.2159762 234.72840931 7.27588157 234.72101688 10.35859692 C234.72257687 11.33879835 234.72413687 12.31899977 234.72574413 13.32890427 C234.7297587 16.64016766 234.72656272 19.95138586 234.72342777 23.26264966 C234.72478161 25.62567687 234.72656144 27.98870387 234.72873783 30.35173047 C234.73283815 36.11981326 234.7322189 41.88788148 234.72932519 47.65596473 C234.7270713 52.3417655 234.72675857 57.02756261 234.72784901 61.71336377 C234.72800224 62.37902625 234.72815547 63.04468874 234.72831335 63.73052281 C234.72863306 65.08259555 234.72895727 66.43466828 234.72928594 67.78674102 C234.73214084 80.47976273 234.72885355 93.17277723 234.72348557 105.86579776 C234.71901753 116.76859315 234.71979346 127.67137789 234.72440434 138.57417309 C234.72974992 151.22025585 234.73186615 163.86633228 234.72879207 176.51241601 C234.72847351 177.85965168 234.72815914 179.20688736 234.72784901 180.55412304 C234.72769473 181.21707381 234.72754046 181.88002457 234.72738151 182.56306475 C234.7265163 187.24589708 234.7279793 191.92872542 234.73032856 196.61155713 C234.73320599 202.90857311 234.73123396 209.20556888 234.7254343 215.50258267 C234.72410601 217.82102054 234.72450198 220.13946009 234.72669697 222.45789731 C234.72940577 225.60825155 234.72603067 228.75853991 234.72101688 231.90888989 C234.72324761 232.83912252 234.72547833 233.76935515 234.72777665 234.72777665 C234.70818305 241.0195936 234.70818305 241.0195936 233.59403324 242.13374341 C230.51180045 242.23400949 227.45189508 242.26811948 224.36917973 242.26072705 C223.3889783 242.26228704 222.40877687 242.26384703 221.39887238 242.26545429 C218.08760899 242.26946886 214.77639079 242.26627289 211.46512699 242.26313794 C209.10209978 242.26449178 206.73907278 242.26627161 204.37604618 242.268448 C198.60796339 242.27254831 192.83989516 242.27192906 187.07181191 242.26903535 C182.38601115 242.26678146 177.70021403 242.26646874 173.01441288 242.26755917 C172.3487504 242.2677124 171.68308791 242.26786564 170.99725384 242.26802351 C169.6451811 242.26834322 168.29310836 242.26866744 166.94103563 242.2689961 C154.24801392 242.271851 141.55499942 242.26856372 128.86197889 242.26319574 C117.9591835 242.25872769 107.05639875 242.25950362 96.15360355 242.2641145 C83.5075208 242.26946009 70.86144437 242.27157631 58.21536064 242.26850224 C56.86812496 242.26818367 55.52088928 242.2678693 54.1736536 242.26755917 C53.51070284 242.2674049 52.84775207 242.26725062 52.16471189 242.26709167 C47.48187956 242.26622647 42.79905123 242.26768946 38.11621952 242.27003872 C31.81920354 242.27291615 25.52220776 242.27094412 19.22519398 242.26514447 C16.90675611 242.26381618 14.58831655 242.26421214 12.26987934 242.26640713 C9.1195251 242.26911594 5.96923673 242.26574083 2.81888676 242.26072705 C1.88865413 242.26295777 0.9584215 242.26518849 0 242.26748681 C-6.29181695 242.24789321 -6.29181695 242.24789321 -7.40596676 241.13374341 C-7.50623285 238.05151061 -7.54034283 234.99160524 -7.5329504 231.90888989 C-7.53451039 230.92868846 -7.53607038 229.94848704 -7.53767765 228.93858254 C-7.54169222 225.62731915 -7.53849624 222.31610095 -7.53536129 219.00483716 C-7.53671513 216.64180994 -7.53849496 214.27878294 -7.54067135 211.91575634 C-7.54477166 206.14767356 -7.54415242 200.37960533 -7.54125871 194.61152208 C-7.53900482 189.92572131 -7.53869209 185.2399242 -7.53978252 180.55412304 C-7.53993576 179.88846056 -7.54008899 179.22279807 -7.54024687 178.536964 C-7.54056658 177.18489126 -7.54089079 175.83281853 -7.54121946 174.48074579 C-7.54407436 161.78772408 -7.54078707 149.09470958 -7.53541909 136.40168905 C-7.53095104 125.49889366 -7.53172697 114.59610892 -7.53633785 103.69331372 C-7.54168344 91.04723096 -7.54379967 78.40115453 -7.54072559 65.75507081 C-7.54040702 64.40783513 -7.54009265 63.06059945 -7.53978252 61.71336377 C-7.53962825 61.050413 -7.53947397 60.38746224 -7.53931502 59.70442206 C-7.53844982 55.02158973 -7.53991281 50.33876139 -7.54226208 45.65592968 C-7.5451395 39.3589137 -7.54316748 33.06191793 -7.53736782 26.76490414 C-7.53603953 24.44646627 -7.5364355 22.12802672 -7.53863049 19.80958951 C-7.54133929 16.65923526 -7.53796418 13.5089469 -7.5329504 10.35859692 C-7.53518112 9.42836429 -7.53741184 8.49813166 -7.53971016 7.53971016 C-7.51662477 0.12662222 -7.41308795 0.02308539 0 0 Z M-2.40596676 5.13374341 C-2.40596676 81.36374341 -2.40596676 157.59374341 -2.40596676 236.13374341 C0.64469857 236.89640974 2.60627898 237.25887085 5.62857437 237.25958455 C6.42665266 237.26219229 7.22473095 237.26480004 8.04699343 237.26748681 C8.91790521 237.26525609 9.78881699 237.26302537 10.68612003 237.26072705 C12.08063781 237.26306703 12.08063781 237.26306703 13.50332767 237.26545429 C16.62561989 237.26945025 19.74786369 237.26628008 22.87015629 237.26313794 C25.10554883 237.26449257 27.34094115 237.26627285 29.57633305 237.268448 C35.65242138 237.27301413 41.72849277 237.27123632 47.8045814 237.26806891 C54.15292231 237.26554204 60.50126174 237.26788368 66.8496027 237.26945508 C78.19148982 237.27139209 89.53336832 237.26828006 100.87525371 237.26319574 C111.16799199 237.25872471 121.46071899 237.25950668 131.75345707 237.2641145 C143.69968821 237.26946002 155.64591251 237.27146147 167.59214526 237.26850224 C173.91846285 237.26693938 180.24477265 237.26674602 186.57108974 237.27003872 C192.51439155 237.27291595 198.45767194 237.27094451 204.40097141 237.26514447 C206.58879466 237.26381625 208.7766197 237.26421203 210.96444225 237.26640713 C213.9372854 237.26911611 216.91005875 237.26574068 219.88289738 237.26072705 C220.76050132 237.26295777 221.63810526 237.26518849 222.54230326 237.26748681 C226.37750311 237.63160614 226.37750311 237.63160614 229.59403324 236.13374341 C229.69202221 233.16283717 229.72395061 230.2151543 229.71428776 227.24383557 C229.71514378 226.30196896 229.71599979 225.36010235 229.71688175 224.38969433 C229.71854755 221.19815743 229.71299619 218.00667206 229.70755863 214.81513989 C229.70725255 212.50217483 229.70738535 210.18920968 229.70792389 207.87624466 C229.70815049 201.65861563 229.70233702 195.44100568 229.69531345 189.22338116 C229.68963621 183.39796904 229.6893513 177.57256166 229.68863773 171.74714673 C229.68338162 154.68850974 229.66942059 137.62987633 229.65653324 120.57124341 C229.63590824 82.47686841 229.61528324 44.38249341 229.59403324 5.13374341 C153.03403324 5.13374341 76.47403324 5.13374341 -2.40596676 5.13374341 Z " fill="#000000" transform="translate(136.40596675872803,121.8662565946579)"/>
<path d="M0 0 C4.51656908 -0.07490483 9.03279623 -0.12895323 13.54980469 -0.16479492 C15.08209543 -0.17975744 16.61434429 -0.20013497 18.14648438 -0.22631836 C40.26102821 -0.59441292 40.26102821 -0.59441292 48.66015625 7.46875 C51.92231087 11.19692671 52.46086743 14.9735082 52.3125 19.87890625 C51.52447821 25.22760416 49.20611164 28.97742709 45.125 32.4375 C41.97390764 34.01304618 39.45683405 34.50410319 36 35 C46.14719219 52.54331968 46.14719219 52.54331968 60 67 C60 67.66 60 68.32 60 69 C57.98194689 69.16387198 55.95992967 69.2792367 53.9375 69.375 C52.24947266 69.47941406 52.24947266 69.47941406 50.52734375 69.5859375 C45.57937898 68.76401644 43.24302204 66.74526193 40 63 C37.30035188 59.20683696 34.91827773 55.26354725 32.5625 51.25 C31.92634766 50.19683594 31.29019531 49.14367187 30.63476562 48.05859375 C26 40.30245536 26 40.30245536 26 38 C23.03 38 20.06 38 17 38 C17.1387078 41.93778511 17.28718492 45.87514223 17.4375 49.8125 C17.47681641 50.93205078 17.51613281 52.05160156 17.55664062 53.20507812 C17.59853516 54.27822266 17.64042969 55.35136719 17.68359375 56.45703125 C17.72025146 57.44678955 17.75690918 58.43654785 17.79467773 59.45629883 C17.90790331 62.1218351 17.90790331 62.1218351 19 65 C20.485 65.99 20.485 65.99 22 67 C22 67.66 22 68.32 22 69 C15.07 69 8.14 69 1 69 C1.33 68.01 1.66 67.02 2 66 C2.99 65.505 2.99 65.505 4 65 C4.98859254 62.03422237 5.13214244 60.07585431 5.14526367 56.98120117 C5.15164352 55.95971481 5.15802338 54.93822845 5.16459656 53.88578796 C5.16570938 52.78265762 5.1668222 51.67952728 5.16796875 50.54296875 C5.17129715 49.4072493 5.17462555 48.27152985 5.17805481 47.10139465 C5.18312112 44.69642543 5.18546323 42.29144917 5.18530273 39.88647461 C5.18748508 36.21260935 5.20563282 32.53904632 5.22460938 28.86523438 C5.2275442 26.52864686 5.2295284 24.19205792 5.23046875 21.85546875 C5.23765427 20.7584111 5.24483978 19.66135345 5.25224304 18.53105164 C5.2553567 11.06342216 5.2553567 11.06342216 3 4 C0.99863756 2.57944932 0.99863756 2.57944932 -1 2 C-0.67 1.34 -0.34 0.68 0 0 Z M17 4 C17 13.57 17 23.14 17 33 C27.70457782 33.8441822 27.70457782 33.8441822 36 30 C39.06658878 26.6106124 40.26341582 23.9959132 40.4375 19.5 C40.16083505 14.01281187 38.56920133 10.45151123 34.5 6.6875 C28.43814307 2.59574657 25.61802788 4 17 4 Z " fill="#040404" transform="translate(198,191)"/>
<path d="M0 0 C1.37899979 0.00666183 1.37899979 0.00666183 2.78585815 0.01345825 C3.82678619 0.01360931 4.86771423 0.01376038 5.94018555 0.01391602 C7.63085648 0.02939987 7.63085648 0.02939987 9.35568237 0.04519653 C10.50704681 0.04802643 11.65841125 0.05085632 12.84466553 0.05377197 C16.533338 0.06499496 20.22177041 0.09010347 23.91036987 0.11550903 C26.40646012 0.12553609 28.90255417 0.13466241 31.39865112 0.14285278 C37.52763971 0.1649412 43.65648765 0.19843957 49.78536987 0.24050903 C50.16755754 1.89665561 50.49932089 3.56507928 50.78536987 5.24050903 C49.78536987 6.24050903 49.78536987 6.24050903 47.84284973 6.36076355 C46.9923555 6.35854294 46.14186127 6.35632233 45.26559448 6.35403442 C43.82421364 6.35392113 43.82421364 6.35392113 42.35371399 6.35380554 C41.30893387 6.34864426 40.26415375 6.34348297 39.18771362 6.33816528 C38.12371841 6.33675034 37.05972321 6.33533539 35.96348572 6.33387756 C32.54991904 6.32825967 29.13641688 6.31570414 25.72286987 6.30300903 C23.41492811 6.29799634 21.10698532 6.29343303 18.79904175 6.28933716 C13.12779561 6.27828443 7.45658735 6.2615289 1.78536987 6.24050903 C2.21570668 11.72974949 2.94724483 16.45035351 5.11349487 21.56863403 C5.58400269 22.69914185 6.0545105 23.82964966 6.53927612 24.99441528 C7.03298706 26.14812622 7.526698 27.30183716 8.03536987 28.49050903 C9.00019513 30.78684515 9.96374061 33.08371939 10.92599487 35.38113403 C11.39843628 36.50326294 11.87087769 37.62539185 12.3576355 38.78152466 C14.60561492 44.22772377 16.70337091 49.72879875 18.78536987 55.24050903 C20.39294399 51.09598906 21.99580485 46.94966133 23.59786987 42.80300903 C24.04968628 41.63834106 24.50150269 40.4736731 24.9670105 39.27371216 C30.55932188 27.54371772 30.55932188 27.54371772 30.78536987 15.24050903 C30.29036987 13.26050903 30.29036987 13.26050903 29.78536987 11.24050903 C34.07536987 11.24050903 38.36536987 11.24050903 42.78536987 11.24050903 C42.78536987 14.24050903 42.78536987 14.24050903 40.98580933 16.44265747 C38.39934994 19.73133211 37.02112185 23.1296479 35.57833862 27.00613403 C35.2898555 27.75779846 35.00137238 28.50946289 34.70414734 29.28390503 C33.7851788 31.68294943 32.87852054 34.08640937 31.97286987 36.49050903 C30.7823518 39.62205398 29.58691148 42.75170715 28.39083862 45.88113403 C28.0978891 46.65018066 27.80493958 47.41922729 27.50311279 48.21157837 C24.4148638 56.28364487 21.11757014 64.26664351 17.78536987 72.24050903 C15.9382019 72.03567505 15.9382019 72.03567505 13.78536987 71.24050903 C12.48019409 69.21292114 12.48019409 69.21292114 11.34005737 66.51785278 C10.90741577 65.51520386 10.47477417 64.51255493 10.02902222 63.47952271 C9.57736694 62.39002319 9.12571167 61.30052368 8.66036987 60.17800903 C8.18680054 59.06723999 7.7132312 57.95647095 7.22531128 56.81204224 C5.7304861 53.29426662 4.2575083 49.76783018 2.78536987 46.24050903 C1.81759919 43.95363602 0.84887234 41.66716737 -0.12088013 39.38113403 C-1.86075486 35.25820087 -3.59932019 31.13479835 -5.31619263 27.00222778 C-5.65988892 26.17682495 -6.00358521 25.35142212 -6.35769653 24.50100708 C-8.38723287 19.14730993 -7.85470671 15.62052809 -6.40213013 10.11550903 C-6.13432739 9.02302856 -6.13432739 9.02302856 -5.8611145 7.90847778 C-3.94619964 0.42855764 -3.94619964 0.42855764 0 0 Z " fill="#030303" transform="translate(263.2146301269531,187.75949096679688)"/>
<path d="M0 0 C0.99 0.33 1.98 0.66 3 1 C2.34 2.32 1.68 3.64 1 5 C1.804375 5.495 2.60875 5.99 3.4375 6.5 C6.43855342 9.42785699 6.88226893 10.96550464 7.125 15.03125 C6.92474736 18.185229 6.19728495 19.73404989 4 22 C0.60528568 22.92583118 -1.86561055 23.24527339 -5.3125 22.5 C-8.05583424 20.06148068 -8.39991971 17.5404737 -9 14 C-8.375 11.1875 -8.375 11.1875 -7 9 C-5.67479497 8.31731862 -4.34187818 7.6492959 -3 7 C-2.32843384 5.06381575 -2.32843384 5.06381575 -2 3 C-1.34 2.01 -0.68 1.02 0 0 Z M-4 10 C-4.76522801 13.35458155 -4.76522801 13.35458155 -5 17 C-3.70735301 18.96431405 -3.70735301 18.96431405 -2 20 C-0.35 19.34 1.3 18.68 3 18 C3.04241723 15.66705225 3.04092937 13.33297433 3 11 C1.87465895 9.64381501 1.87465895 9.64381501 -1.0625 9.9375 C-2.031875 9.958125 -3.00125 9.97875 -4 10 Z " fill="#010100" transform="translate(271,274)"/>
<path d="M0 0 C1.67578125 1.1015625 1.67578125 1.1015625 3 3 C3.29296875 6.13671875 3.29296875 6.13671875 3.1875 9.6875 C3.16042969 10.86699219 3.13335937 12.04648437 3.10546875 13.26171875 C3.07066406 14.16535156 3.03585938 15.06898438 3 16 C1.39884424 16.2493357 -0.20620159 16.47378648 -1.8125 16.6875 C-2.70582031 16.81511719 -3.59914062 16.94273437 -4.51953125 17.07421875 C-7 17 -7 17 -8.8359375 15.6796875 C-10 14 -10 14 -9.8125 11.4375 C-9 9 -9 9 -7 7 C-5.01178687 6.60235737 -3.01055661 6.26224651 -1 6 C-1 5.34 -1 4.68 -1 4 C-3.31 4.66 -5.62 5.32 -8 6 C-8.33 4.68 -8.66 3.36 -9 2 C-5.53076119 -0.31282587 -4.07794425 -0.42478586 0 0 Z M-2 9 C-3.32 9.33 -4.64 9.66 -6 10 C-6 10.99 -6 11.98 -6 13 C-4.35 13 -2.7 13 -1 13 C-1.33 11.68 -1.66 10.36 -2 9 Z " fill="#010100" transform="translate(244,280)"/>
<path d="M0 0 C0.88429688 -0.02578125 1.76859375 -0.0515625 2.6796875 -0.078125 C5.125 0.25 5.125 0.25 6.93359375 1.34765625 C8.72327724 4.20528202 8.41139485 6.60803997 8.3125 9.9375 C8.28542969 11.11699219 8.25835937 12.29648437 8.23046875 13.51171875 C8.19566406 14.41535156 8.16085937 15.31898438 8.125 16.25 C7.135 16.25 6.145 16.25 5.125 16.25 C4.125 15.25 4.125 15.25 4.02734375 12.74609375 C4.03894531 11.73675781 4.05054688 10.72742188 4.0625 9.6875 C4.07152344 8.67558594 4.08054687 7.66367187 4.08984375 6.62109375 C4.10144531 5.83863281 4.11304688 5.05617188 4.125 4.25 C2.475 4.58 0.825 4.91 -0.875 5.25 C-1.205 8.88 -1.535 12.51 -1.875 16.25 C-3.195 16.25 -4.515 16.25 -5.875 16.25 C-5.90185095 13.77076199 -5.92176547 11.2918116 -5.9375 8.8125 C-5.95006836 7.75192383 -5.95006836 7.75192383 -5.96289062 6.66992188 C-5.97153588 4.86306441 -5.92720011 3.05612397 -5.875 1.25 C-4.21733202 -0.40766798 -2.27153595 0.03950497 0 0 Z " fill="#020201" transform="translate(288.875,279.75)"/>
<path d="M0 0 C0.99 0 1.98 0 3 0 C3 7.26 3 14.52 3 22 C1.68 22 0.36 22 -1 22 C-1.02887814 18.52085059 -1.04675687 15.04173169 -1.0625 11.5625 C-1.07087891 10.56927734 -1.07925781 9.57605469 -1.08789062 8.55273438 C-1.09111328 7.60849609 -1.09433594 6.66425781 -1.09765625 5.69140625 C-1.10289307 4.81685791 -1.10812988 3.94230957 -1.11352539 3.04125977 C-1 1 -1 1 0 0 Z " fill="#010101" transform="translate(225,274)"/>
<path d="M0 0 C0.99 0.33 1.98 0.66 3 1 C3 7.93 3 14.86 3 22 C1.68 22 0.36 22 -1 22 C-1.02887814 18.52085059 -1.04675687 15.04173169 -1.0625 11.5625 C-1.07087891 10.56927734 -1.07925781 9.57605469 -1.08789062 8.55273438 C-1.09111328 7.60849609 -1.09433594 6.66425781 -1.09765625 5.69140625 C-1.10289307 4.81685791 -1.10812988 3.94230957 -1.11352539 3.04125977 C-1 1 -1 1 0 0 Z " fill="#010100" transform="translate(215,274)"/>
<path d="M0 0 C0.99 0.33 1.98 0.66 3 1 C3 7.93 3 14.86 3 22 C1.68 22 0.36 22 -1 22 C-1.02887814 18.52085059 -1.04675687 15.04173169 -1.0625 11.5625 C-1.07087891 10.56927734 -1.07925781 9.57605469 -1.08789062 8.55273438 C-1.09111328 7.60849609 -1.09433594 6.66425781 -1.09765625 5.69140625 C-1.10289307 4.81685791 -1.10812988 3.94230957 -1.11352539 3.04125977 C-1 1 -1 1 0 0 Z " fill="#000000" transform="translate(254,274)"/>
<path d="M0 0 C2.625 0.375 2.625 0.375 5 1 C5.6875 3.3125 5.6875 3.3125 6 6 C4.5625 7.8125 4.5625 7.8125 3 9 C0.525 8.01 0.525 8.01 -2 7 C-2.125 4.625 -2.125 4.625 -2 2 C-1.34 1.34 -0.68 0.68 0 0 Z " fill="#000000" transform="translate(230,204)"/>
<path d="M0 0 C1.32 0.33 2.64 0.66 4 1 C3.67 5.62 3.34 10.24 3 15 C2.01 15 1.02 15 0 15 C0 10.05 0 5.1 0 0 Z " fill="#020202" transform="translate(204,281)"/>
<path d="M0 0 C0.99 0.33 1.98 0.66 3 1 C3 1.99 3 2.98 3 4 C1.35 3.67 -0.3 3.34 -2 3 C-1.34 2.01 -0.68 1.02 0 0 Z " fill="#070707" transform="translate(205,274)"/>
</svg>